<svg width="108" height="181" viewBox="0 0 108 181" fill="none" xmlns="http://www.w3.org/2000/svg">
<path d="M69.4114 67.9424C59.4455 78.0269 48.6752 85.3284 39.37 89.0156C34.7153 90.8601 30.4954 91.7731 26.9643 91.7265C23.4434 91.6801 20.7042 90.6863 18.8151 88.8194C16.926 86.9526 15.8999 84.2253 15.8118 80.7052C15.7234 77.1749 16.5864 72.9444 18.3757 68.2682C21.9526 58.9201 29.1262 48.0642 39.0921 37.9797C49.058 27.8951 59.8283 20.5936 69.1334 16.9064C73.7882 15.062 78.0081 14.149 81.5392 14.1955C85.0601 14.242 87.7993 15.2358 89.6884 17.1027C91.5775 18.9695 92.6036 21.6968 92.6917 25.2169C92.78 28.7472 91.917 32.9776 90.1278 37.6538C86.5509 47.0019 79.3773 57.8579 69.4114 67.9424Z" fill="#FF631E" stroke="#0B0B0F" stroke-width="3"/>
<path d="M68.8418 141.981C58.6064 152.338 47.5905 159.886 38.1051 163.749C33.3598 165.682 29.0671 166.664 25.4864 166.664C21.9146 166.663 19.1602 165.691 17.2809 163.834C15.4017 161.976 14.3966 159.234 14.3538 155.662C14.3109 152.082 15.2423 147.778 17.1189 143.01C20.87 133.479 28.287 122.375 38.5225 112.018C48.758 101.661 59.7738 94.1126 69.2592 90.2491C74.0046 88.3162 78.2972 87.3339 81.878 87.3345C85.4497 87.335 88.2042 88.3076 90.0834 90.1648C91.9626 92.0219 92.9678 94.7646 93.0105 98.3361C93.0534 101.917 92.122 106.221 90.2454 110.989C86.4944 120.519 79.0773 131.623 68.8418 141.981Z" fill="#FF631E" stroke="#0B0B0F" stroke-width="3"/>
<path d="M53.2857 110.039C42.685 109.907 33.1896 107.597 26.4156 104.042C19.5598 100.444 15.8953 95.8169 15.9532 91.1867C16.0112 86.5564 19.7904 82.0229 26.7341 78.5973C33.595 75.2126 43.1452 73.1416 53.7459 73.2743C64.3466 73.407 73.8421 75.7164 80.6161 79.2718C87.4718 82.87 91.1364 87.4968 91.0785 92.127C91.0205 96.7573 87.2413 101.291 80.2976 104.716C73.4367 108.101 63.8864 110.172 53.2857 110.039Z" fill="#FF631E" stroke="#0B0B0F" stroke-width="3"/>
<circle cx="54" cy="92" r="8" fill="#0B0B0F"/>
</svg>
